<svg xmlns="http://www.w3.org/2000/svg" xmlns:xlink="http://www.w3.org/1999/xlink" version="1.1" width="256" height="256" viewBox="0 0 256 256" xml:space="preserve">

<defs>
</defs>
<g style="stroke: none; stroke-width: 0; stroke-dasharray: none; stroke-linecap: butt; stroke-linejoin: miter; stroke-miterlimit: 10; fill: none; fill-rule: nonzero; opacity: 1;" transform="translate(1.4065934065934016 1.4065934065934016) scale(2.81 2.81)" >
	<path d="M 83.782 12.234 C 74.888 2.187 58.044 0.941 45 13.77 C 31.955 0.941 15.112 2.187 6.218 12.234 c -9.46 10.688 -5.487 30.635 6.968 46.577 C 19.499 66.892 35.094 80.051 45 85.577 c 9.905 -5.526 25.501 -18.685 31.814 -26.766 C 89.268 42.87 93.243 22.922 83.782 12.234 z" style="stroke: none; stroke-width: 1; stroke-dasharray: none; stroke-linecap: butt; stroke-linejoin: miter; stroke-miterlimit: 10; fill: rgb(251,185,215); fill-rule: nonzero; opacity: 1;" transform=" matrix(1 0 0 1 0 0) " stroke-linecap="round" />
	<path d="M 45 86.578 c -0.168 0 -0.336 -0.042 -0.488 -0.127 c -10.024 -5.591 -25.631 -18.724 -32.115 -27.023 C -0.992 42.289 -3.905 22.162 5.469 11.571 C 9.9 6.565 16.131 3.676 23.013 3.439 C 30.756 3.162 38.544 6.34 45 12.384 c 6.455 -6.043 14.236 -9.22 21.986 -8.945 c 6.882 0.238 13.113 3.126 17.545 8.133 c 9.375 10.591 6.461 30.717 -6.929 47.856 c -6.483 8.299 -22.09 21.431 -32.115 27.023 C 45.336 86.536 45.168 86.578 45 86.578 z M 23.923 5.424 c -0.28 0 -0.56 0.004 -0.841 0.014 c -6.328 0.219 -12.051 2.868 -16.115 7.459 c -8.736 9.869 -5.789 28.92 7.006 45.299 C 20.11 66.05 35.307 78.877 45 84.428 c 9.694 -5.552 24.89 -18.379 31.025 -26.232 c 12.797 -16.38 15.743 -35.43 7.007 -45.299 l 0 0 c -4.064 -4.591 -9.787 -7.24 -16.115 -7.459 c -7.487 -0.261 -15.021 2.953 -21.215 9.045 c -0.389 0.383 -1.014 0.383 -1.403 0 C 38.336 8.619 31.131 5.424 23.923 5.424 z" style="stroke: none; stroke-width: 1; stroke-dasharray: none; stroke-linecap: butt; stroke-linejoin: miter; stroke-miterlimit: 10; fill: rgb(44,56,61); fill-rule: nonzero; opacity: 1;" transform=" matrix(1 0 0 1 0 0) " stroke-linecap="round" />
	<ellipse cx="27.494999999999997" cy="37.919999999999995" rx="4.275" ry="5.87" style="stroke: none; stroke-width: 1; stroke-dasharray: none; stroke-linecap: butt; stroke-linejoin: miter; stroke-miterlimit: 10; fill: rgb(249,110,180); fill-rule: nonzero; opacity: 1;" transform=" matrix(0.5 -0.866 0.866 0.5 -19.091 42.7677) "/>
	<ellipse cx="62.51" cy="37.915" rx="5.87" ry="4.275" style="stroke: none; stroke-width: 1; stroke-dasharray: none; stroke-linecap: butt; stroke-linejoin: miter; stroke-miterlimit: 10; fill: rgb(249,110,180); fill-rule: nonzero; opacity: 1;" transform=" matrix(0.866 -0.5 0.5 0.866 -10.5842 36.3337) "/>
	<path d="M 45 47.087 c -3.858 0 -7.439 -1.925 -9.58 -5.149 c -0.306 -0.46 -0.18 -1.082 0.28 -1.387 c 0.462 -0.306 1.082 -0.18 1.387 0.28 c 1.769 2.665 4.727 4.255 7.913 4.255 s 6.144 -1.591 7.913 -4.255 c 0.304 -0.46 0.925 -0.589 1.386 -0.28 c 0.46 0.305 0.586 0.926 0.28 1.387 C 52.439 45.162 48.858 47.087 45 47.087 z" style="stroke: none; stroke-width: 1; stroke-dasharray: none; stroke-linecap: butt; stroke-linejoin: miter; stroke-miterlimit: 10; fill: rgb(44,56,61); fill-rule: nonzero; opacity: 1;" transform=" matrix(1 0 0 1 0 0) " stroke-linecap="round" />
	<path d="M 30.241 35.748 c -0.34 0 -0.672 -0.173 -0.859 -0.487 c -0.284 -0.474 -0.129 -1.088 0.344 -1.372 l 4.688 -2.806 l -4.688 -2.806 c -0.474 -0.284 -0.628 -0.898 -0.344 -1.372 c 0.283 -0.474 0.898 -0.63 1.372 -0.344 l 6.122 3.664 c 0.302 0.181 0.487 0.507 0.487 0.858 s -0.185 0.678 -0.487 0.858 l -6.122 3.665 C 30.593 35.703 30.416 35.748 30.241 35.748 z" style="stroke: none; stroke-width: 1; stroke-dasharray: none; stroke-linecap: butt; stroke-linejoin: miter; stroke-miterlimit: 10; fill: rgb(44,56,61); fill-rule: nonzero; opacity: 1;" transform=" matrix(1 0 0 1 0 0) " stroke-linecap="round" />
	<path d="M 59.758 35.748 c -0.175 0 -0.352 -0.046 -0.513 -0.142 l -6.122 -3.665 c -0.302 -0.181 -0.487 -0.507 -0.487 -0.858 s 0.185 -0.678 0.487 -0.858 l 6.122 -3.664 c 0.474 -0.284 1.088 -0.13 1.373 0.344 c 0.283 0.474 0.129 1.088 -0.345 1.372 l -4.688 2.806 l 4.688 2.806 c 0.474 0.284 0.628 0.898 0.345 1.372 C 60.431 35.575 60.098 35.748 59.758 35.748 z" style="stroke: none; stroke-width: 1; stroke-dasharray: none; stroke-linecap: butt; stroke-linejoin: miter; stroke-miterlimit: 10; fill: rgb(44,56,61); fill-rule: nonzero; opacity: 1;" transform=" matrix(1 0 0 1 0 0) " stroke-linecap="round" />
</g>
</svg>